<svg xmlns="http://www.w3.org/2000/svg" 
width="122pt" 
height="122pt"
version="1.1"
viewBox="0 0 752 752">
 <g fill="#ff814a">
  <path d="m376 177.1c52.754 0 103.35 20.957 140.65 58.258 37.301 37.301 58.258 87.895 58.258 140.64 0 52.754-20.957 103.35-58.258 140.65-37.301 37.301-87.895 58.258-140.65 58.258-52.75 0-103.34-20.957-140.64-58.258-37.301-37.301-58.258-87.895-58.258-140.65 0-52.75 20.957-103.34 58.258-140.64s87.895-58.258 140.64-58.258m0-14.207c-56.52 0-110.73 22.453-150.69 62.418s-62.418 94.172-62.418 150.69c0 56.523 22.453 110.73 62.418 150.7 39.965 39.965 94.172 62.418 150.69 62.418 56.523 0 110.73-22.453 150.7-62.418 39.965-39.969 62.418-94.172 62.418-150.7 0-37.406-9.8477-74.156-28.551-106.55-18.707-32.398-45.609-59.301-78.004-78.004-32.398-18.703-69.148-28.551-106.56-28.551z"/>
  <path d="m362.17 359.14c-2.4961-12.629-4.3555-22.762-5.5898-30.402-1.2305-7.6406-2.0352-13.23-2.4141-16.766-0.34766-3.6289-0.51953-6.7891-0.51953-9.4727-0.23438-5.7617 1.9844-11.355 6.1094-15.391 4.5547-3.7734 10.281-5.8359 16.195-5.8359s11.645 2.0625 16.199 5.8359c4.1211 4.0352 6.3438 9.6289 6.1055 15.391 0 2.6523-0.17187 5.8086-0.51953 9.4727-0.34766 3.6641-1.1211 9.2188-2.3203 16.672-1.2305 7.5156-3.0938 17.648-5.5898 30.402-2.4922 12.754-5.8555 29.613-10.086 50.578h-7.4805c-4.2305-20.898-7.5938-37.727-10.09-50.484zm-1.6094 75.203v0.003906c4.0859-4.0781 9.6211-6.3711 15.395-6.3672 5.7734 0 11.309 2.293 15.395 6.3711 4.082 4.0781 6.3789 9.6133 6.3867 15.387 0.14062 5.6914-2.1914 11.168-6.3945 15.012-4.207 3.8555-9.707 5.9922-15.414 5.9922-5.707 0-11.207-2.1367-15.414-5.9922-4.1992-3.8438-6.5312-9.3203-6.3945-15.012-0.074219-5.8242 2.2773-11.418 6.4883-15.438z"/>
 </g>
</svg>