<?xml version="1.0" standalone="no"?>
<!DOCTYPE svg PUBLIC "-//W3C//DTD SVG 20010904//EN"
 "http://www.w3.org/TR/2001/REC-SVG-20010904/DTD/svg10.dtd">
<svg version="1.0" xmlns="http://www.w3.org/2000/svg"
 width="72.000000pt" height="72.000000pt" viewBox="0 0 72.000000 72.000000"
 preserveAspectRatio="xMidYMid meet">
<metadata>
Created by potrace 1.14, written by Peter Selinger 2001-2017
</metadata>
<g transform="translate(0.000000,72.000000) scale(0.100000,-0.100000)"
fill="#000000" stroke="none">
<path d="M193 607 l-43 -21 0 -147 c0 -88 -4 -150 -10 -154 -6 -4 -7 -13 -1
-23 5 -9 11 -37 15 -62 7 -45 30 -82 56 -92 15 -6 12 -8 -35 -23 -19 -6 -19
-25 0 -25 8 0 15 -4 15 -9 0 -6 -9 -8 -19 -6 -27 5 -49 -21 -24 -28 10 -3 110
-4 223 -3 175 1 205 3 205 16 0 9 -9 15 -22 14 -13 -1 -23 3 -23 7 0 5 7 9 16
9 26 0 10 25 -20 30 l-27 5 30 29 c21 21 32 42 37 75 4 25 10 54 15 63 6 10 5
19 -1 23 -6 4 -10 66 -10 153 l0 147 -33 23 c-31 20 -44 22 -168 21 -116 0
-140 -3 -176 -22z m263 -510 c4 -4 -40 -7 -97 -7 -57 0 -98 4 -92 8 15 10 180
9 189 -1z m14 -46 c-18 -10 -216 -9 -226 2 -4 4 49 7 117 7 70 0 117 -4 109
-9z"/>
</g>
</svg>
